<svg id="Layer_1" data-name="Layer 1" xmlns="http://www.w3.org/2000/svg" viewBox="0 0 272.85 96.83"><defs><style>.cls-1,.cls-3{fill:#5876b3;}.cls-2{fill:#fff;}.cls-3{font-size:48px;stroke:#5876b3;stroke-miterlimit:10;font-family:ChelseaMarket-Regular, Chelsea Market;}</style></defs><title>blue-back-btn</title><path class="cls-1" d="M5.81,95.5H252.87l16.62-18L252.87,6,19.35,5.5q-7,10-14,20Q5.58,60.5,5.81,95.5Z" transform="translate(-1.02 -1.7)"/><path class="cls-1" d="M5.5,98.49H245.67c2,0,4,.08,5.93,0,5.38-.24,8.88-6.42,12.25-10.07,2.55-2.76,5.22-5.46,7.67-8.31,2.14-2.5,2-3.26,1.22-6.58l-5.17-22.22Q262.19,28.14,256.79,5c-.36-1.58-2.26-1.93-3.6-1.94L119.46,2.73,52.6,2.58l-16,0c-5.43,0-11.61-.86-17,0-4.06.63-5.77,4.82-7.93,7.9L6.89,17.33C5.4,19.46,3,21.88,2,24.26.17,28.7,1.43,35.5,1.46,40.35q.06,9.24.13,18.47l.24,36.95c0,4.22,8,3.15,8-.54q-.17-23.33-.32-46.66L9.41,36.9c0-3.4-.94-8.47.32-11.7,1.13-2.9,4.11-5.87,5.92-8.46q3.51-5,7-10L19,8.49,252.56,9,249,7.05l16.62,71.48.62-2.3-16.62,18,3.62-1.75H6.13C1.57,92.51.18,98.49,5.5,98.49Z" transform="translate(-1.02 -1.7)"/><rect class="cls-2" x="20.33" y="2.87" width="248.14" height="71.91"/><path class="cls-1" d="M271.07,73.61H22.93l2.8,2.45V4.15l-6,3.28H267.91L265.11,5V76.9c0,4.17,8.76,2.61,8.76-.84V4.15a2.57,2.57,0,0,0-2.8-2.45H22.93c-1.67,0-6,.78-6,3.29V76.9a2.57,2.57,0,0,0,2.79,2.45H267.91c1.82,0,4.93-.53,5.69-2.55C274.28,75,273,73.61,271.07,73.61Z" transform="translate(-1.02 -1.7)"/><text class="cls-3" transform="translate(90.72 53.69)"><tspan xml:space="preserve"> Back</tspan></text><path class="cls-1" d="M91.77,24.14,72.31,35.38a3.57,3.57,0,0,0,0,6.19L91.77,52.82a3.58,3.58,0,0,0,5.36-3.1V27.24A3.58,3.58,0,0,0,91.77,24.14Z" transform="translate(-1.02 -1.7)"/></svg>