<svg id="Layer_1" data-name="Layer 1" xmlns="http://www.w3.org/2000/svg" viewBox="0 0 397.5 150.67"><defs><style>.cls-1{fill:#fff;}</style></defs><title>right-bubble</title><path class="cls-1" d="M100.66,57.31H346c28.08,0,50.85,19.79,50.85,44.2V157.9c0,24.41-22.77,44.2-50.85,44.2H104.33c-24.54,0-45.63-15.22-50-36.2a71.78,71.78,0,0,0-7.53-20.32C31.89,118.7.77,102.86,3.45,99.52c2.27-2.83,22.29,11.75,36.12,6.28,5.91-2.33,9.69-7.94,11.93-15.56C57.21,70.79,77.57,57.31,100.66,57.31Z" transform="translate(-1.34 -54.37)"/><path d="M101.72,60.15H339.45c10.61,0,20.88.38,30.82,4.92,11.89,5.43,22,15.59,24.24,28.84.89,5.28.5,10.9.5,16.23,0,15,.13,30.1,0,45.15-.2,24.14-21.17,41.35-44.12,43.67-6.23.63-12.65.3-18.9.3H110.28c-11.38,0-22.39-.75-32.8-6.18a44.56,44.56,0,0,1-15.61-13.21c-4.22-5.86-5.3-12.28-7.28-19-3.86-13.14-11.2-24.74-20.44-34.75-7.37-8-15.8-14.79-24.24-21.61-1.29-1-2.62-2.08-3.84-3.2C6,101.17,4.91,100,4.74,100c-.77,0,.57,1.84.84,2,1,.64,3.13.77,4.35,1.24,2.27.87,4.51,1.84,6.78,2.71,9.38,3.58,21.43,7,29.65-.88,4.82-4.61,5.91-10.78,8.4-16.65a42.73,42.73,0,0,1,10.89-15c9.86-8.83,23-13.06,36.07-13.23,2,0-.23-5.71-2.12-5.68-13.37.17-26.71,4.38-36.82,13.35A44.68,44.68,0,0,0,52.16,81.61c-3,6.14-3.8,13.21-9,18.13-9.43,9-23.52,2.41-33.67-1.58-1.68-.66-6-3-7.65-1.28-1.47,1.52.41,4.61,1.33,5.89,4.62,6.42,12.8,11,18.71,16.09,11.27,9.74,21.73,21,27.32,35,2.7,6.74,3.46,14,6.48,20.64a49.41,49.41,0,0,0,10.14,14.55,55.68,55.68,0,0,0,32.87,15.47c6.78.78,13.8.38,20.61.38H344.18c16.2,0,31.95-4.66,43.23-16.88a42.7,42.7,0,0,0,11.33-28.79c.06-5.62,0-11.25,0-16.88V114.8c0-5.37.34-10.92-.27-16.28-2.79-24.57-25.23-42.11-49-43.89-6.19-.46-12.49-.16-18.69-.16H99.6C97.6,54.47,99.82,60.15,101.72,60.15Z" transform="translate(-1.34 -54.37)"/></svg>