<svg id="Layer_1" data-name="Layer 1" xmlns="http://www.w3.org/2000/svg" viewBox="0 0 397.5 150.67"><defs><style>.cls-1{fill:#fff;}</style></defs><title>left-bubble</title><path class="cls-1" d="M299.5,202.1H54.13c-28.08,0-50.85-19.79-50.85-44.2V101.51c0-24.41,22.77-44.2,50.85-44.2H295.84c24.53,0,45.62,15.22,50,36.21a71.83,71.83,0,0,0,7.53,20.31c14.9,26.88,46,42.72,43.34,46.06-2.27,2.84-22.29-11.75-36.12-6.28-5.91,2.33-9.69,7.95-11.93,15.56C343,188.62,322.59,202.1,299.5,202.1Z" transform="translate(-1.32 -54.37)"/><path d="M298.44,199.26H60.71c-10.61,0-20.88-.37-30.82-4.92C18,188.91,7.89,178.75,5.65,165.5c-.89-5.28-.5-10.89-.5-16.23,0-15.05-.13-30.1,0-45.15C5.35,80,26.32,62.77,49.27,60.45c6.23-.63,12.65-.3,18.9-.3H289.88c11.38,0,22.39.75,32.8,6.18a44.56,44.56,0,0,1,15.61,13.21c4.22,5.86,5.3,12.28,7.28,19,3.86,13.14,11.2,24.74,20.44,34.75,7.37,8,15.8,14.8,24.24,21.61,1.3,1,2.62,2.08,3.84,3.2.12.11,1.16,1.28,1.33,1.28.77,0-.57-1.84-.84-2-1-.64-3.13-.77-4.35-1.24-2.27-.87-4.51-1.84-6.78-2.7-9.38-3.59-21.43-7-29.65.87C349,159,347.89,165.12,345.4,171a42.51,42.51,0,0,1-10.89,15c-9.86,8.83-23,13.06-36.07,13.23-2,0,.23,5.71,2.12,5.68,13.37-.16,26.71-4.38,36.82-13.35A44.75,44.75,0,0,0,348,177.81c3-6.15,3.8-13.21,9-18.14,9.44-9,23.52-2.41,33.68,1.59,1.67.66,6,3,7.64,1.27,1.47-1.51-.4-4.6-1.33-5.89-4.62-6.42-12.8-11-18.71-16.09-11.27-9.74-21.73-21-27.32-35-2.7-6.75-3.46-14-6.48-20.65A49.23,49.23,0,0,0,334.3,70.32a55.68,55.68,0,0,0-32.87-15.47c-6.78-.77-13.8-.38-20.61-.38H56c-16.19,0-31.95,4.66-43.23,16.88A42.7,42.7,0,0,0,1.42,100.14c-.06,5.62,0,11.25,0,16.88v27.59c0,5.38-.34,10.93.27,16.28,2.79,24.57,25.23,42.11,49,43.89,6.19.46,12.49.16,18.69.16H300.56C302.56,204.94,300.34,199.26,298.44,199.26Z" transform="translate(-1.32 -54.37)"/></svg>